<svg width="54" height="44" viewBox="0 0 54 44" fill="none" xmlns="http://www.w3.org/2000/svg">
<g clip-path="url(#clip0)">
<path d="M49.6692 7.46863C49.6476 6.93825 49.1832 6.51611 48.6 6.51611C38.8044 6.51611 29.214 9.62263 27.0648 10.3695C31.5792 11.7875 36.2124 13.7791 39.042 17.3619C40.5864 19.2453 40.824 21.6266 40.9644 23.8888C36.3096 23.2827 31.6872 22.46 27.0216 21.9296C27.0108 21.9296 27 21.9296 27 21.9296C26.9892 21.9296 26.9784 21.9296 26.9784 21.9296C22.3128 22.46 17.6904 23.2827 13.0356 23.8888C13.176 21.6374 13.4136 19.2453 14.958 17.3619C17.7876 13.7791 22.4208 11.7875 26.9352 10.3695C24.786 9.63346 15.1956 6.51611 5.40001 6.51611C4.81681 6.51611 4.35241 6.93825 4.33081 7.46863C4.34161 16.6583 4.33081 30.9461 4.33081 39.0967C4.35241 39.6271 4.81681 40.06 5.40001 40.06C7.08481 40.06 8.79121 40.1683 10.4544 40.3306C10.4544 37.0726 10.4544 28.1102 10.4868 25.5124C10.4868 25.231 10.7028 24.9929 10.9836 24.9604C16.0272 24.3542 21.0276 23.4991 26.0604 22.8172C26.3736 22.7739 26.676 22.7523 26.9892 22.7523C27.3024 22.7523 27.6048 22.7739 27.918 22.8172C32.9508 23.4991 37.9512 24.3434 42.9948 24.9604C43.2756 24.9929 43.4916 25.231 43.4916 25.5124C43.524 28.1102 43.524 37.0726 43.524 40.3306C45.198 40.1574 46.8936 40.06 48.5784 40.06C49.1616 40.06 49.6368 39.6379 49.6476 39.0967C49.6692 30.9461 49.6584 16.6583 49.6692 7.46863Z" fill="#FF8A71"/>
<path d="M26.9999 26.584C25.6067 26.9953 24.8292 28.3375 24.7536 29.5931C24.6456 31.5523 24.6887 40.1899 24.7103 43.2748C26.1467 43.7078 26.9999 44.0108 26.9999 44.0108C26.9999 44.0108 27.8423 43.7078 29.2895 43.2748C29.3111 40.2007 29.3543 31.5631 29.2463 29.5931C29.1707 28.3483 28.3931 26.9953 26.9999 26.584Z" fill="#FF8A71"/>
<path d="M36.72 29.8312C35.3268 30.2426 34.5492 31.5847 34.4736 32.8403C34.3764 34.6155 34.4088 39.4972 34.4304 41.9001C35.8452 41.5754 37.3896 41.2398 39.0204 40.9584C39.042 38.8477 39.0744 34.6047 38.9772 32.8403C38.8908 31.5956 38.1132 30.2426 36.72 29.8312Z" fill="#FF8A71"/>
<path d="M17.2801 29.8312C15.8869 30.2426 15.1093 31.5847 15.0337 32.8403C14.9365 34.6047 14.9689 38.8477 14.9905 40.9584C16.6213 41.2398 18.1657 41.5646 19.5805 41.9001C19.6021 39.4972 19.6345 34.6155 19.5373 32.8403C19.4509 31.5956 18.6733 30.2426 17.2801 29.8312Z" fill="#FF8A71"/>
<path d="M26.352 1.0815e-06C24.4836 0.281428 23.0796 1.91587 23.0796 3.81009C23.0796 5.93161 24.8076 7.66347 26.9244 7.66347C28.1124 7.66347 29.214 7.12226 29.9484 6.18057C30.0132 6.09397 30.0132 5.96408 29.9484 5.87749C29.8836 5.7909 29.7648 5.75843 29.6676 5.81255C29.2572 5.99656 28.8144 6.09397 28.3716 6.09397C26.6544 6.09397 25.2504 4.68684 25.2504 2.96581C25.2504 1.96999 25.7364 1.02829 26.5464 0.432965C26.6328 0.368021 26.676 0.248956 26.6328 0.151539C26.5896 0.0541216 26.46 -0.010823 26.352 1.0815e-06Z" fill="#FF8A71"/>
<path d="M29.16 0.930878C29.0736 0.930878 28.9872 0.974174 28.944 1.06077L28.5336 1.89422L27.6048 2.03494C27.5184 2.04576 27.4428 2.11071 27.4212 2.1973C27.3888 2.28389 27.4104 2.38131 27.486 2.44625L28.1556 3.0957L27.9936 4.02657C27.972 4.10234 28.0044 4.18893 28.08 4.24306C28.1232 4.27553 28.1772 4.28635 28.2204 4.28635C28.2636 4.28635 28.296 4.27553 28.3284 4.25388L29.16 3.83174L29.9808 4.2647C30.0564 4.308 30.1644 4.308 30.24 4.25388C30.3156 4.19976 30.348 4.11317 30.3264 4.01575L30.1644 3.08488L30.834 2.43543C30.8988 2.37048 30.9204 2.27307 30.8988 2.18647C30.8664 2.09988 30.7908 2.03494 30.7044 2.02411L29.7864 1.8834L29.376 1.04994C29.3436 0.974174 29.2464 0.930878 29.16 0.930878Z" fill="#FF8A71"/>
</g>
<defs>
<clipPath id="clip0">
<rect width="54" height="44" fill="white"/>
</clipPath>
</defs>
</svg>
